<svg width="640" height="480" xmlns="http://www.w3.org/2000/svg" xmlns:svg="http://www.w3.org/2000/svg">
 <!-- Created with SVG-edit - http://svg-edit.googlecode.com/ -->

 <g>
  <title>Layer 1</title>
  <path id="svg_1" d="m79.1462,61.00149c13.39896,-40.18129 65.89675,0 0,51.66178c-65.89695,-51.66178 -13.3991,-91.84307 0,-51.66178z" stroke-width="2" stroke="#000000" fill="#FF0000"/>
  <path id="svg_2" d="m119.1462,101.0015c13.39896,-40.1813 65.89675,0 0,51.66177c-65.89695,-51.66177 -13.3991,-91.84307 0,-51.66177z" stroke-width="2" stroke="#000000" fill="#FF0000"/>
  <path id="svg_3" d="m159.14621,141.0015c13.39896,-40.1813 65.89674,0 0,51.66177c-65.89696,-51.66177 -13.39911,-91.84307 0,-51.66177z" stroke-width="2" stroke="#000000" fill="#FF0000"/>
  <path id="svg_4" d="m199.14621,181.0015c13.39896,-40.1813 65.89676,0 0,51.66177c-65.89696,-51.66177 -13.39911,-91.84308 0,-51.66177z" stroke-width="2" stroke="#000000" fill="#FF0000"/>
  <path id="svg_5" d="m239.14621,221.0015c13.39896,-40.1813 65.89676,0 0,51.66177c-65.89696,-51.66177 -13.39911,-91.84308 0,-51.66177z" stroke-width="2" stroke="#000000" fill="#FF0000"/>
  <path id="svg_6" d="m279.14621,261.0015c13.39896,-40.1813 65.89676,0 0,51.66177c-65.89696,-51.66177 -13.39911,-91.84308 0,-51.66177z" stroke-width="2" stroke="#000000" fill="#FF0000"/>
  <path id="svg_7" d="m319.14621,301.0015c13.39896,-40.1813 65.89676,0 0,51.66177c-65.89696,-51.66177 -13.39911,-91.84308 0,-51.66177z" stroke-width="2" stroke="#000000" fill="#FF0000"/>
  <path id="svg_8" d="m359.14621,341.0015c13.39896,-40.1813 65.89676,0 0,51.66177c-65.89694,-51.66177 -13.39911,-91.84308 0,-51.66177z" stroke-width="2" stroke="#000000" fill="#FF0000"/>
  <path id="svg_9" d="m203.14621,57.0015c13.39896,-40.1813 65.89676,0 0,51.66177c-65.89694,-51.66177 -13.39911,-91.84308 0,-51.66177z" stroke-width="2" stroke="#000000" fill="#FF0000"/>
  <path id="svg_10" d="m243.14621,97.0015c13.39896,-40.1813 65.89676,0 0,51.66177c-65.89694,-51.66177 -13.39911,-91.84308 0,-51.66177z" stroke-width="2" stroke="#000000" fill="#FF0000"/>
  <path id="svg_11" d="m283.14621,137.0015c13.39896,-40.1813 65.89676,0 0,51.66177c-65.89694,-51.66177 -13.39911,-91.84308 0,-51.66177z" stroke-width="2" stroke="#000000" fill="#FF0000"/>
  <path id="svg_12" d="m323.14621,177.0015c13.39896,-40.1813 65.89676,0 0,51.66177c-65.89694,-51.66177 -13.39911,-91.84308 0,-51.66177z" stroke-width="2" stroke="#000000" fill="#FF0000"/>
  <path id="svg_13" d="m363.14621,217.0015c13.39896,-40.1813 65.89676,0 0,51.66177c-65.89694,-51.66177 -13.39911,-91.84308 0,-51.66177z" stroke-width="2" stroke="#000000" fill="#FF0000"/>
  <path id="svg_14" d="m403.14621,257.0015c13.39896,-40.1813 65.89676,0 0,51.66177c-65.89694,-51.66177 -13.39911,-91.84308 0,-51.66177z" stroke-width="2" stroke="#000000" fill="#FF0000"/>
  <path id="svg_15" d="m443.14621,297.0015c13.39896,-40.1813 65.89676,0 0,51.66177c-65.89694,-51.66177 -13.39911,-91.84308 0,-51.66177z" stroke-width="2" stroke="#000000" fill="#FF0000"/>
  <path id="svg_16" d="m325.14621,57.0015c13.39896,-40.1813 65.89676,0 0,51.66177c-65.89694,-51.66177 -13.39911,-91.84308 0,-51.66177z" stroke-width="2" stroke="#000000" fill="#FF0000"/>
  <path id="svg_17" d="m365.14621,97.0015c13.39896,-40.1813 65.89676,0 0,51.66177c-65.89694,-51.66177 -13.39911,-91.84308 0,-51.66177z" stroke-width="2" stroke="#000000" fill="#FF0000"/>
  <path id="svg_18" d="m405.14621,137.0015c13.39896,-40.1813 65.89676,0 0,51.66177c-65.89694,-51.66177 -13.39911,-91.84308 0,-51.66177z" stroke-width="2" stroke="#000000" fill="#FF0000"/>
  <path id="svg_19" d="m445.14621,177.0015c13.39896,-40.1813 65.89676,0 0,51.66177c-65.89694,-51.66177 -13.39911,-91.84308 0,-51.66177z" stroke-width="2" stroke="#000000" fill="#FF0000"/>
  <path id="svg_20" d="m485.14621,217.0015c13.39896,-40.1813 65.89676,0 0,51.66177c-65.89694,-51.66177 -13.39911,-91.84308 0,-51.66177z" stroke-width="2" stroke="#000000" fill="#FF0000"/>
  <path id="svg_21" d="m525.14624,257.0015c13.39893,-40.1813 65.89673,0 0,51.66177c-65.89697,-51.66177 -13.39914,-91.84308 0,-51.66177z" stroke-width="2" stroke="#000000" fill="#FF0000"/>
  <path id="svg_23" d="m455.14624,57.0015c13.39893,-40.1813 65.89673,0 0,51.66177c-65.89697,-51.66177 -13.39917,-91.84308 0,-51.66177z" stroke-width="2" stroke="#000000" fill="#FF0000"/>
  <path id="svg_24" d="m495.14624,97.0015c13.39893,-40.1813 65.89673,0 0,51.66177c-65.89697,-51.66177 -13.39917,-91.84308 0,-51.66177z" stroke-width="2" stroke="#000000" fill="#FF0000"/>
  <path id="svg_25" d="m535.14624,137.0015c13.39893,-40.1813 65.89673,0 0,51.66177c-65.89697,-51.66177 -13.39917,-91.84308 0,-51.66177z" stroke-width="2" stroke="#000000" fill="#FF0000"/>
  <path id="svg_26" d="m575.14624,177.0015c13.39893,-40.1813 65.89673,0 0,51.66177c-65.89697,-51.66177 -13.39917,-91.84308 0,-51.66177z" stroke-width="2" stroke="#000000" fill="#FF0000"/>
  <path id="svg_27" d="m573.14624,53.0015c13.39893,-40.1813 65.89673,0 0,51.66177c-65.89697,-51.66177 -13.39917,-91.84308 0,-51.66177z" stroke-width="2" stroke="#000000" fill="#FF0000"/>
 </g>
</svg>