<svg width="171" height="171" xmlns="http://www.w3.org/2000/svg" xmlns:svg="http://www.w3.org/2000/svg">
 <!-- Created with SVG-edit - http://svg-edit.googlecode.com/ -->
 <g>
  <title>Layer 1</title>
  <path id="svg_1" d="m85.50568,2.49805c-45.83578,0 -83.00761,37.15615 -83.00761,82.99926c0,45.83542 37.17183,83.00073 83.00761,83.00073c45.83572,0 82.99127,-37.16531 82.99127,-83.00073c0,-45.84311 -37.15555,-82.99926 -82.99127,-82.99926zm47.89163,77.09986c-8.29559,9.5341 -21.17392,12.68788 -32.46838,9.06305l-41.04176,47.20274c-4.37456,5.02776 -11.99052,5.54266 -17.02713,1.16791s-5.5412,-11.98116 -1.18541,-17.00925l41.11215,-47.25526c-5.10437,-10.64925 -3.74533,-23.78065 4.49855,-33.2617c7.80719,-8.99216 19.70982,-12.28638 30.53081,-9.55833l-15.71835,18.3423l5.1409,14.97067l15.54471,3.01511l15.77267,-18.38647c4.2706,10.36043 2.70343,22.68173 -5.15875,31.70924z" stroke-width="5" stroke="#000000" fill="#FF0000"/>
 </g>
</svg>