<?xml version="1.0"?>
<svg width="640" height="480" xmlns="http://www.w3.org/2000/svg" xmlns:svg="http://www.w3.org/2000/svg">
 <!-- Created with SVG-edit - http://svg-edit.googlecode.com/ -->

 <g>
  <title>Layer 1</title>
  <path fill="#e5e5e5" stroke="#000000" stroke-width="5" d="m212.918732,220.911682c9.043671,-6.122498 -1.42099,-15.53833 0.430145,-23.055817c-0.776154,-7.164856 -0.71228,-14.342926 -1.000641,-21.520447c5.770172,-1.925201 11.440308,-6.239441 17.832916,-5.81427c9.635162,7.807922 8.580811,18.198425 16.215057,26.617889c4.253204,8.065491 14.551697,15.977814 29.690247,14.744629c16.185089,0.157104 5.442688,-8.062531 -4.044006,-9.22406c-15.901245,-4.75238 -14.858429,-17.26004 -17.678894,-26.445435c-1.059601,-6.471466 -3.328979,-13.074036 -3.639313,-19.477295c6.620911,-9.099762 16.184601,-18.040115 14.015869,-28.515305c0.937805,-11.310806 -4.373932,-23.673401 5.210663,-34.03421c5.715485,-9.927582 -3.973602,-20.083832 -3.004517,-30.220016c-1.0065,-9.396286 5.330444,-19.419861 -1.24118,-28.361298c-14.127899,-9.881042 -13.298859,8.450058 -19.43811,13.064484c-5.781677,9.792969 -25.365448,6.843781 -36.398621,2.699722c-7.385803,-2.612747 -17.310303,-18.017456 -25.079559,-9.110809c-3.45874,9.045807 6.303253,16.143234 12.552094,23.454147c7.036499,14.000977 -6.024414,28.025681 -21.467209,37.786438c-25.480759,17.159851 -45.199585,37.954041 -55.46048,60.427063c-1.358368,9.329803 -4.085144,17.952057 -13.165344,25.550446c-10.454849,6.469849 -26.821106,6.155792 -40.325455,8.429688c-9.452332,1.609528 -31.530396,3.277954 -27.13427,11.049622c15.112877,1.567596 30.849037,0.150757 46.032768,-0.834808c17.723724,-1.736816 35.898483,-4.639221 50.341934,-11.550293c14.99736,-6.112152 19.254974,12.72345 34.889786,6.778381c2.241348,-4.898376 -10.941574,-12.559479 6.703156,-12.252716c6.492188,0.199585 15.374725,1.159424 20.256653,3.107666c-1.10022,7.742523 -2.096039,15.492859 -4.395416,23.12796c1.832886,3.822174 14.522797,8.221649 19.301727,3.578644l0,0z" id="svg_1"/>
  <path fill="none" stroke="#000000" stroke-width="5" stroke-dasharray="null" stroke-linejoin="null" stroke-linecap="null" id="svg_2" d="m1021,619c0,1 0.081726,2.112122 -4,5c-2.943359,2.082458 -4,2 -6,3c-2,1 -3,1 -4,1c0,0 0,1 -1,1c0,0 0,0 0,0c0,1 0,1 -1,1c0,0 0,1 -1,1c0,0 -0.852722,1.173096 -2,2c-1.813965,1.307434 -4,1 -6,2c-2,1 -3.82373,1.486267 -6,2c-1.946472,0.459534 -3,0 -3,0l-1,0l0,0"/>
  <text transform="matrix(10.3319, 0, 0, 1, -1893.2, 0)" xml:space="preserve" text-anchor="middle" font-family="serif" font-size="24" id="svg_3" y="296" x="210" stroke-width="0" stroke="#000000" fill="#000000"/>
  <text xml:space="preserve" text-anchor="middle" font-family="serif" font-size="24" id="svg_5" y="150" x="334" stroke-linecap="null" stroke-linejoin="null" stroke-dasharray="null" stroke-width="0" stroke="#000000" fill="#000000">привет</text>
 </g>
</svg>