<svg width="640" height="480" xmlns="http://www.w3.org/2000/svg" xmlns:svg="http://www.w3.org/2000/svg">
 <!-- Created with SVG-edit - http://svg-edit.googlecode.com/ -->

 <g>
  <title>Layer 1</title>
  <path id="svg_1" d="m421.6579,136.72221c-0.98367,-42.19142 -35.48163,-76.08334 -77.92032,-76.09922c-28.36307,0 -53.12485,15.17394 -66.7402,37.8122c-6.39807,-3.52726 -13.75537,-5.56145 -21.60471,-5.56145c-24.49986,0.01689 -44.43948,19.4058 -45.32545,43.71685c-25.73003,8.44823 -44.34885,32.51372 -44.37381,61.12265c0,35.59747 28.88783,64.5023 64.51042,64.5023l0,-0.01706l170.6543,0c35.60498,0 64.50116,-28.90361 64.50116,-64.50102c-0.01572,-28.36298 -18.31491,-52.32977 -43.70139,-60.97525zm-20.79977,103.98732l-170.67163,0c-23.74504,-0.06567 -42.97064,-19.25851 -43.01135,-43.01207c-0.01642,-21.30882 15.59204,-38.89447 36.01561,-42.25728c2.84651,-0.46028 5.39729,-2.05173 7.06165,-4.4465c1.66563,-2.39459 2.28026,-5.34706 1.75574,-8.20236c-0.30339,-1.59007 -0.4847,-3.09961 -0.4847,-4.5593c0.04147,-13.17366 10.69595,-23.81952 23.86923,-23.85233c6.95554,0 13.08209,2.98529 17.5527,7.85782c2.50092,2.77226 6.30692,4.03467 9.96545,3.3298c3.67444,-0.70483 6.73419,-3.29695 8.04642,-6.77527c8.04532,-21.42341 28.61636,-36.68 52.78879,-36.66309c31.16818,0.04883 56.38165,25.26218 56.45584,56.43044c0,1.73872 -0.09857,3.51129 -0.28732,5.34843c-0.53326,5.56032 3.27271,10.58015 8.76004,11.5981c19.99643,3.69031 35.19568,21.12856 35.16272,42.17436c-0.04117,23.75372 -19.23398,42.96356 -42.97919,43.02924zm-154.89009,104.31491c0,-11.97549 0.23012,-58.3172 0.23012,-58.39902c0.02415,-4.39645 -2.65791,-8.3667 -6.75101,-10.00671c-4.08502,-1.6413 -8.76012,-0.64038 -11.81982,2.57492c-0.05722,0.08289 -11.14606,11.79523 -22.36676,25.18091c-5.62663,6.74228 -11.26987,13.82944 -15.73135,20.3746c-4.28998,6.97159 -8.09589,11.46677 -8.71924,20.2753c0.03288,17.99609 14.58328,32.56238 32.59567,32.59515c17.97908,-0.03278 32.56239,-14.61636 32.56239,-32.59515zm-43.61911,0.49216c0.97591,-3.75632 11.6143,-18.48813 21.42387,-29.72446c0.27042,-0.31165 0.55029,-0.6564 0.81203,-0.95203c-0.04848,12.09103 -0.1058,24.65561 -0.1058,30.18433c0,6.10226 -4.95526,11.0563 -11.05708,11.07315c-5.96315,-0.01685 -10.79416,-4.70795 -11.07301,-10.58099zm123.1393,-0.49216c0,-11.97549 0.22168,-58.30032 0.22168,-58.36615c0.02441,-4.41327 -2.65781,-8.3826 -6.7511,-10.03958c-4.09192,-1.6413 -8.75128,-0.62338 -11.8269,2.59213c-0.06573,0.08157 -11.12183,11.76111 -22.3595,25.1806c-5.61023,6.6925 -11.25348,13.81253 -15.73132,20.3577c-4.29065,6.98746 -8.0954,11.48233 -8.69427,20.30814c0,17.96326 14.55881,32.54654 32.56201,32.54654c17.98761,-0.017 32.57941,-14.60059 32.57941,-32.57938zm-43.65253,0.50897c0.99225,-3.75723 11.62238,-18.48788 21.42456,-29.72552c0.2702,-0.32739 0.54181,-0.63916 0.81213,-0.95093c-0.05719,12.07419 -0.12292,24.65567 -0.12292,30.16748c-0.01715,6.11929 -4.9541,11.04034 -11.04901,11.07315c-5.9549,-0.03281 -10.7774,-4.70795 -11.06476,-10.56418zm117.24976,-68.93176c-4.08459,-1.63986 -8.77588,-0.63919 -11.81836,2.57639c-0.09854,0.08163 -11.14749,11.79391 -22.35953,25.1803c-5.62613,6.72562 -11.2778,13.81262 -15.71545,20.39081c-4.32227,6.97159 -8.11234,11.46677 -8.73575,20.2753c0,17.9631 14.55896,32.56238 32.57944,32.56238c17.98734,0 32.53772,-14.59927 32.53772,-32.56238c0,-11.99127 0.23856,-58.33322 0.23856,-58.39902c0.03299,-4.39645 -2.64182,-8.38242 -6.72662,-10.02377zm-14.96802,68.42279c-0.04132,6.10226 -4.97974,11.04034 -11.08163,11.0563c-5.9465,-0.01596 -10.76886,-4.70831 -11.05637,-10.56415c0.9924,-3.74042 11.62238,-18.48813 21.43173,-29.72446c0.27155,-0.29605 0.53345,-0.62341 0.79633,-0.93518c-0.04984,12.07419 -0.09006,24.63876 -0.09006,30.16748z" stroke-width="5" stroke="#000000" fill="#FF0000"/>
 </g>
</svg>