<svg width="640" height="480" xmlns="http://www.w3.org/2000/svg" xmlns:svg="http://www.w3.org/2000/svg">
 <!-- Created with SVG-edit - http://svg-edit.googlecode.com/ -->
 <g>
  <title>Layer 1</title>
  <path d="m480,169c-25.66666,18.66667 -29.07129,21.13908 -32.64667,23.74933c-3.70969,2.70831 -7.50565,5.49104 -11.33249,8.334c-3.83319,2.8477 -7.62228,5.68018 -11.28751,8.51401c-6.93292,5.36032 -10.05423,7.92589 -12.96802,10.37866c-2.75647,2.32033 -5.32959,4.57695 -7.74448,6.774c-2.31662,2.10765 -4.51575,4.18285 -6.61951,6.23399c-4.09293,3.99059 -6.06244,6.01112 -8.02667,8.01334c-1.95145,1.98917 -3.87473,3.97745 -5.77051,5.961c-1.87885,1.96582 -3.72885,3.9225 -5.5455,5.871c-3.56885,3.82784 -5.29535,5.72639 -7.004,7.59734c-1.68869,1.84906 -3.35507,3.68207 -5.013,5.48999c-1.6434,1.79208 -3.27646,3.56833 -4.923,5.31c-3.26782,3.4566 -4.93198,5.1384 -6.60666,6.79868c-1.66974,1.6554 -3.35959,3.2811 -5.07449,4.87051c-1.71051,1.5853 -3.43997,3.14273 -5.2095,4.64548c-3.52911,2.99704 -5.36169,4.40991 -7.216,5.80801c-1.87338,1.41248 -3.81201,2.80084 -5.82449,4.17151c-2.06604,1.40714 -4.22641,2.81558 -6.49951,4.21649c-4.82693,2.97479 -7.4581,4.45764 -10.172,5.98801c-2.76736,1.56052 -5.57629,3.10004 -8.39099,4.608c-2.77472,1.48657 -5.48972,2.91357 -8.121,4.24799c-4.82352,2.44614 -6.99005,3.4711 -8.97867,4.39334c-1.82117,0.84457 -3.50592,1.59067 -5.06699,2.25449c-1.44452,0.61426 -2.79974,1.16364 -4.077,1.66953c-2.37842,0.94205 -3.51749,1.37881 -4.62668,1.81732c-1.08813,0.43018 -2.15805,0.85693 -3.21301,1.284c-1.04636,0.42358 -2.08673,0.8493 -3.12299,1.284c-2.08817,0.87592 -3.13986,1.33505 -4.19467,1.79733c-1.05051,0.46039 -2.086,0.9212 -3.099,1.37701c-0.98431,0.4429 -1.93015,0.87286 -2.82901,1.28699c-1.63086,0.75137 -2.34668,1.08975 -3.00533,1.40134c-0.61333,0.29013 -1.19196,0.56677 -1.74899,0.83249c-0.54697,0.26093 -1.09534,0.5231 -1.65901,0.78751c-1.21455,0.56973 -1.88905,0.87772 -2.60666,1.20132c-0.75203,0.33914 -1.53349,0.68539 -2.3385,1.03201c-0.81766,0.35208 -1.64302,0.70123 -2.4735,1.03201c-1.62561,0.64749 -2.42139,0.92847 -3.20401,1.20398c-0.78073,0.27484 -1.57402,0.54337 -2.38499,0.82651c-0.84238,0.2941 -1.72662,0.60559 -2.655,0.96149c-2.06084,0.79004 -3.19231,1.2785 -4.39067,1.79602c-1.24806,0.53897 -2.52133,1.10666 -3.8085,1.67999l-1.28217,0.57333l-1.26016,0.56332l-1.22116,0.54333" id="svg_1" stroke-width="5" stroke="#000000" fill="none"/>
  <path d="m218,139c14,11.66667 15.62679,12.98936 17.31599,14.34134c1.73773,1.39081 3.5284,2.80728 5.37151,4.24199c1.88083,1.46407 3.80402,2.94397 5.7765,4.42201c4.02182,3.01367 6.09772,4.4984 8.18933,5.99733c2.10674,1.50977 4.23485,3.01653 6.36751,4.539c2.14069,1.5282 4.28735,3.06036 6.41248,4.629c4.25153,3.13817 6.33231,4.76114 8.39203,6.40266c2.056,1.63855 4.08084,3.308 6.0705,5.00999c1.98508,1.69809 3.94092,3.42122 5.84549,5.19c3.79343,3.52293 5.60532,5.36542 7.43332,7.22133c1.86487,1.89333 3.76181,3.87019 5.742,5.92201c2.0784,2.15356 4.27225,4.43359 6.642,6.82199c5.24731,5.28864 8.2236,8.15518 11.38269,11.172c3.29153,3.1433 6.70673,6.34471 10.2045,9.56851c3.51419,3.23894 7.02603,6.43477 10.5195,9.5235c6.63596,5.86711 9.77899,8.50227 12.76666,10.97467c2.83365,2.34496 5.56339,4.53719 8.19299,6.606c2.52539,1.98685 4.98611,3.87732 7.383,5.70599c4.65372,3.55051 6.95258,5.28998 9.24268,7.04132c2.30792,1.76498 4.64832,3.56094 7.04099,5.3985c2.46332,1.89178 5.01349,3.85303 7.67102,5.89352c5.70288,4.37875 8.77664,6.73508 11.97998,9.17999c3.29361,2.51382 6.6481,5.06384 10.0365,7.61398c3.37561,2.54053 6.71017,5.03745 9.99152,7.43402c6.17572,4.51053 9.05981,6.51978 11.81067,8.40665c2.64716,1.81573 5.25854,3.55426 7.8645,5.26352c2.63269,1.72681 5.35092,3.47705 8.1795,5.3085c6.1774,3.99976 9.59012,6.23291 13.20932,8.60931c3.79352,2.49088 7.72131,5.07938 11.75699,7.728c4.10297,2.69278 8.23825,5.4053 12.38702,8.08801c8.14206,5.26486 12.09692,7.75751 15.93466,10.15601c3.69748,2.31085 7.25574,4.50168 10.65747,6.56848c3.21851,1.95551 6.24945,3.77505 9.08252,5.44351c4.97034,2.92715 7.10376,4.14206 9.01202,5.20667c1.69635,0.94638 3.21649,1.76682 4.59296,2.45401c1.23248,0.6153 2.3609,1.14365 3.42303,1.55399c1.93311,0.74683 2.89252,0.99014 3.82397,1.22c0.90283,0.22278 1.78241,0.39716 2.62799,0.53851c0.80261,0.13419 1.56128,0.23563 2.26801,0.31348c1.23077,0.13556 1.74835,0.17136 2.20404,0.20535c0.40338,0.03009 0.76392,0.05139 1.09045,0.06448c0.30145,0.01208 0.58704,0.01761 0.86554,0.0195c0.57196,0.00391 0.88184,0.00134 1.21063,0.00134c0.34686,0 0.71069,0 1.09052,0c0.39484,0 0.80365,0 1.22552,0c0.87866,0 1.33362,0.00079 1.79865,-0.00134c0.47498,-0.00217 0.96008,-0.00699 1.45502,-0.0195c0.50507,-0.01276 1.02026,-0.03067 1.54498,-0.06448c1.08081,-0.06967 1.63519,-0.13181 2.19733,-0.20132c0.56927,-0.0704 1.14215,-0.15515 1.716,-0.255c0.5755,-0.10016 1.14923,-0.21173 1.716,-0.345c1.12128,-0.26367 1.664,-0.43002 2.19867,-0.59866c0.52966,-0.16705 1.04932,-0.35068 1.56451,-0.53552l0.51013,-0.18982l0.50616,-0.19385l0.50317,-0.19681" id="svg_2" stroke-width="5" stroke="#000000" fill="none"/>
  <path d="m553,147c0,-15 0,-16.49966 0,-17.99733c0,-1.49367 0,-2.98134 0,-4.46101c0,-1.46967 0,-2.92733 0,-4.37099c0,-2.83733 0.00085,-4.22701 -0.00134,-5.59467c-0.00214,-1.34367 -0.00665,-2.66135 -0.01947,-3.951c-0.01257,-1.2597 -0.02911,-2.48753 -0.06451,-3.681c-0.0675,-2.27779 -0.12988,-3.35776 -0.20135,-4.39733c-0.06879,-1.00045 -0.15271,-1.96078 -0.255,-2.88c-0.09802,-0.8808 -0.20721,-1.7221 -0.34497,-2.52c-0.25629,-1.48429 -0.42126,-2.16478 -0.60803,-2.80534c-0.17987,-0.61695 -0.39581,-1.20698 -0.672,-1.758c-0.27618,-0.55103 -0.61011,-1.08804 -1.03198,-1.578c-0.91064,-1.0576 -1.54059,-1.51833 -2.19202,-1.99866c-0.67645,-0.49876 -1.40112,-0.9648 -2.151,-1.4025c-0.7464,-0.43568 -1.49548,-0.8363 -2.24097,-1.1775c-1.36926,-0.62669 -2.00641,-0.83311 -2.59601,-1.00134c-0.54999,-0.15693 -1.08252,-0.26547 -1.60052,-0.342c-0.51019,-0.07536 -1.02686,-0.11945 -1.55548,-0.162c-1.13177,-0.0911 -1.75195,-0.14155 -2.41064,-0.20533c-0.69696,-0.06748 -1.43048,-0.14294 -2.2005,-0.216c-0.80469,-0.07635 -1.64319,-0.15382 -2.5155,-0.216c-1.83777,-0.131 -2.80188,-0.16663 -3.78534,-0.19866c-0.99323,-0.03235 -1.98663,-0.05173 -2.97003,-0.0645c-0.96332,-0.01251 -1.89667,-0.01755 -2.78998,-0.0195c-1.62665,-0.00355 -2.34418,-0.00134 -3.00665,-0.00134c-0.6225,0 -1.22003,0 -1.8075,0c-0.59253,0 -1.20502,0 -1.85254,0c-1.45996,0 -2.29999,0 -3.21997,0c-1,0 -2.08002,0 -3.24002,0c-1.23999,0 -2.56,0 -3.95999,0c-3.04001,0 -4.677,0 -6.37601,0c-1.74298,0 -3.51199,0 -5.289,0c-1.767,0 -3.50598,0 -5.19897,0c-3.17603,0 -4.62836,0 -5.99469,0c-1.29431,0 -2.53067,0 -3.72299,0c-1.16232,0 -2.30865,0 -3.453,0c-2.33865,0 -3.55682,0 -4.80399,0c-1.26517,0 -2.53735,0 -3.80551,0c-1.25317,0 -2.48035,0 -3.6705,0c-2.22534,0 -3.242,0 -4.19867,0c-0.90668,0 -1.77332,0 -2.60999,0c-0.81668,0 -1.62335,0 -2.43002,0c-1.65332,0 -2.51682,0 -3.40131,0c-0.89651,0 -1.79602,0 -2.68951,0c-0.87851,0 -1.733,0 -2.5545,0c-1.508,0 -2.17831,0 -2.79065,0c-0.55634,0 -1.05869,0 -1.509,0c-0.40033,0 -0.75269,0 -1.05902,0c-0.48267,0 -0.66348,0 -0.80933,0c-0.11584,0 -0.20667,0 -0.2775,0c-0.05585,0 -0.10165,0 -0.14249,0c-0.08667,0 -0.14883,0 -0.26401,0c-0.21118,0 -0.56134,0 -1.09351,0c-0.75717,0 -1.78232,0 -3.1185,0c-3.77734,0 -6.28732,0.00067 -9.17734,-0.00134c-3.20999,-0.00223 -6.67999,-0.00711 -10.35001,-0.0195c-3.81,-0.01286 -7.70004,-0.0296 -11.60999,-0.0645c-7.64014,-0.06818 -11.26648,-0.12428 -14.76935,-0.21066c-3.41748,-0.08427 -6.78644,-0.20369 -10.14148,-0.3915c-3.38245,-0.18935 -6.82803,-0.43605 -10.36652,-0.7965c-7.53809,-0.76787 -11.57895,-1.37017 -15.78665,-1.99067c-4.32877,-0.63835 -8.72247,-1.34244 -13.13852,-2.06699c-4.39328,-0.72082 -8.71152,-1.45614 -12.91348,-2.15701c-7.85583,-1.31032 -11.43271,-1.88206 -14.79199,-2.39066c-3.1785,-0.48122 -6.2215,-0.9141 -9.16953,-1.3065c-2.89069,-0.38477 -5.76871,-0.74245 -8.6745,-1.0815c-6.0527,-0.70624 -9.27457,-1.04758 -12.61731,-1.404c-3.43591,-0.36636 -6.93814,-0.7281 -10.479,-1.077c-3.54984,-0.34978 -7.0816,-0.68692 -10.569,-0.987c-6.72069,-0.57829 -9.90919,-0.79978 -12.98001,-0.99733c-2.96558,-0.19078 -5.84094,-0.34727 -8.6385,-0.474c-2.7318,-0.12374 -5.41205,-0.22227 -8.0535,-0.294c-5.21684,-0.14165 -7.81729,-0.17184 -10.41733,-0.204c-2.59996,-0.03217 -5.19998,-0.05183 -7.8,-0.0645c-2.59999,-0.01266 -5.2,-0.01759 -7.8,-0.0195c-5.2,-0.00383 -7.799,-0.00134 -10.392,-0.00134c-2.58099,0 -5.144,0 -7.683,0c-2.509,0 -4.98199,0 -7.41299,0c-4.71201,0 -6.98167,0 -9.18935,0c-2.14366,0 -4.22133,0 -6.23099,0c-1.93967,0 -3.80734,0 -5.601,0c-3.35735,0 -4.91917,-0.00179 -6.412,0.00267c-1.43484,0.00429 -2.82277,0.01337 -4.1745,0.03899c-1.32695,0.02515 -2.64024,0.06075 -3.94951,0.12901c-2.65604,0.13848 -4.01854,0.26482 -5.39999,0.39999c-1.39093,0.13611 -2.77815,0.29478 -4.1505,0.471c-1.34901,0.17323 -2.66193,0.35727 -3.92551,0.561c-2.34842,0.37865 -3.40756,0.58978 -4.39066,0.79733c-0.91417,0.19299 -1.75936,0.39224 -2.538,0.6c-0.72262,0.19281 -1.3892,0.38853 -1.998,0.6c-1.09266,0.37954 -1.56989,0.59134 -2.008,0.80267c-0.41046,0.19799 -0.78589,0.4079 -1.119,0.639c-0.31754,0.2203 -0.60834,0.45791 -0.849,0.729c-0.47529,0.53539 -0.64571,0.86887 -0.80933,1.22c-0.17945,0.38511 -0.33509,0.83881 -0.4875,1.36349c-0.17558,0.60442 -0.34648,1.31123 -0.53249,2.1285c-0.45854,2.01467 -0.7111,3.23972 -1.00401,4.596c-0.31841,1.47439 -0.65921,3.05113 -1.026,4.713c-0.38245,1.73283 -0.78066,3.52021 -1.206,5.343c-0.8638,3.70185 -1.33237,5.54549 -1.792,7.39467c-0.46303,1.86282 -0.93275,3.74965 -1.377,5.679c-0.45467,1.97465 -0.9026,4.01073 -1.28699,6.129c-0.81398,4.48564 -1.10822,6.89682 -1.396,9.4c-0.29717,2.58488 -0.54356,5.24686 -0.7545,7.971c-0.21465,2.77192 -0.39286,5.58315 -0.5295,8.421c-0.27456,5.7025 -0.33955,8.54865 -0.404,11.38266c-0.06417,2.82167 -0.10361,5.63063 -0.12901,8.42551c-0.02525,2.77979 -0.03516,5.54367 -0.03899,8.2905c-0.00761,5.43867 -0.00432,8.13116 0,10.81866c0.00434,2.69751 0.01395,5.42004 0.03899,8.18251c0.02554,2.81754 0.06223,5.70522 0.12901,8.67749c0.14066,6.26054 0.26223,9.57211 0.40666,12.99333c0.14828,3.51216 0.33162,7.09438 0.5685,10.72501c0.23898,3.66278 0.51257,7.33684 0.8835,10.995c0.73218,7.22098 1.25401,10.73219 1.796,14.17467c0.53246,3.38196 1.12813,6.69237 1.758,9.93451c0.61843,3.18323 1.27222,6.29845 1.938,9.3495c1.29302,5.92551 1.95676,8.79187 2.59067,11.60532c0.62176,2.75955 1.23306,5.46747 1.8255,8.12851c0.58219,2.61499 1.15157,5.18732 1.6905,7.72351c1.05413,4.96072 1.53124,7.39917 2.00667,9.80798c0.47056,2.38419 0.92971,4.7493 1.407,7.09351c0.47475,2.33179 0.95583,4.65408 1.497,6.9585c1.0837,4.61462 1.73111,6.90878 2.40533,9.20401c0.67708,2.30493 1.40788,4.60449 2.181,6.89999c0.77618,2.30457 1.592,4.60568 2.451,6.89999c1.7266,4.61163 2.65464,6.90485 3.60267,9.19467c0.94931,2.29291 1.93704,4.57202 2.98801,6.82199c1.05046,2.2489 2.14391,4.4772 3.34799,6.642c2.40352,4.32123 3.78612,6.3765 5.21201,8.40268c1.4359,2.04041 2.97942,4.0386 4.6275,5.99701c1.67839,1.99438 3.46753,3.97134 5.3925,5.90698c4.01665,4.03888 6.27289,5.99329 8.57733,7.992c2.34012,2.02966 4.74481,4.02017 7.17599,5.97601c2.41162,1.94009 4.81166,3.81577 7.17599,5.616c4.47374,3.40637 6.57967,4.9473 8.59467,6.39066c1.92349,1.37781 3.79358,2.66904 5.64601,3.8475c1.80421,1.1478 3.60963,2.22809 5.46599,3.17249c3.73735,1.90134 5.75584,2.65936 7.80135,3.40668c2.06114,0.75302 4.15512,1.4212 6.25349,2.02499c2.07124,0.59601 4.11656,1.12491 6.1185,1.57501c3.76707,0.84698 5.52818,1.14203 7.20534,1.40533c1.61411,0.25342 3.19447,0.45239 4.75949,0.603c1.56712,0.15079 3.16229,0.25983 4.8045,0.33301c3.50676,0.15628 5.41055,0.17813 7.40933,0.20132c2.0806,0.02414 4.22951,0.02405 6.43201,-0.01349c2.2429,-0.03824 4.51276,-0.10248 6.79199,-0.23849c4.54478,-0.27118 6.78035,-0.52448 8.99467,-0.80267c2.20917,-0.27753 4.41592,-0.61548 6.63,-1.00052c2.23938,-0.38947 4.50632,-0.82925 6.81,-1.31549c4.77972,-1.00885 7.25699,-1.59546 9.78799,-2.19467c2.56668,-0.60767 5.14526,-1.24188 7.71451,-1.90649c2.54944,-0.65948 5.05594,-1.32913 7.4895,-2.0415c4.62701,-1.35449 6.76416,-2.07236 8.78,-2.80533c1.92139,-0.69864 3.73343,-1.43079 5.418,-2.23651c1.61676,-0.77332 3.14658,-1.59244 4.51797,-2.55148c2.6503,-1.85339 3.75296,-3.02548 4.80936,-4.18134c1.03665,-1.13425 1.96091,-2.31436 2.81848,-3.47549c0.81793,-1.10745 1.53833,-2.18451 2.23352,-3.16052c1.18591,-1.66498 1.70755,-2.30817 2.22,-2.79199c0.4437,-0.41891 0.89847,-0.72949 1.35898,-0.92249c0.4458,-0.18686 0.93417,-0.2793 1.44901,-0.33752c1.17276,-0.13263 1.8728,-0.15604 2.71066,-0.224c1.04977,-0.08514 2.38251,-0.19061 4.06952,-0.31348c2.11157,-0.15378 4.71933,-0.33395 7.8945,-0.53851c8.33383,-0.53693 13.60855,-0.8475 19.56799,-1.19333c6.54886,-0.38 13.5929,-0.77313 21.03751,-1.164c7.74872,-0.40683 15.70743,-0.80893 23.7825,-1.164c16.11163,-0.70844 23.97272,-0.96353 31.63199,-1.19333c7.42642,-0.22281 14.59045,-0.3974 21.46051,-0.53851c6.54465,-0.13443 12.73355,-0.23636 18.53549,-0.31348c10.31851,-0.13712 14.78397,-0.17157 18.80133,-0.20535c3.60132,-0.0303 6.81866,-0.05118 9.68402,-0.06448c2.54529,-0.01181 4.80267,-0.01752 6.80396,-0.0195c3.36267,-0.00333 4.78467,-0.00134 6.05872,-0.00134c1.138,0 2.15198,0 3.05396,0c0.802,0 1.51599,0 2.15399,0c1.09601,0 1.57751,0.00092 2.02802,-0.00134c0.42853,-0.00214 0.84406,-0.00693 1.25549,-0.0195c0.41656,-0.01273 0.84729,-0.0322 1.30054,-0.06448c1.01263,-0.07214 1.58557,-0.13388 2.19867,-0.20001c0.64355,-0.06943 1.30695,-0.14822 1.97998,-0.2355c0.67365,-0.08737 1.33746,-0.17834 1.97998,-0.28049c1.18829,-0.18887 1.71472,-0.29425 2.2027,-0.40134c0.46405,-0.10181 0.9129,-0.21533 1.35901,-0.33899c0.45795,-0.12692 0.93622,-0.27182 1.44897,-0.42902c1.17664,-0.36072 1.85962,-0.57504 2.612,-0.79733c0.81451,-0.24066 1.69031,-0.48917 2.62653,-0.73199c0.98773,-0.2562 2.02771,-0.51038 3.12146,-0.73199c2.30957,-0.46796 3.53326,-0.6333 4.78271,-0.79868c1.26727,-0.16772 2.54645,-0.30994 3.82495,-0.44849c1.26819,-0.13742 2.51752,-0.26135 3.73505,-0.4035c2.30835,-0.2695 3.37878,-0.4317 4.39465,-0.60135c0.97015,-0.16202 1.89655,-0.33841 2.78699,-0.51599c0.86157,-0.17181 1.69733,-0.35071 2.51703,-0.51599c1.60663,-0.32397 2.40656,-0.46661 3.20264,-0.59735c0.78668,-0.12921 1.56219,-0.24365 2.32202,-0.345c0.73883,-0.09857 1.4541,-0.18509 2.14197,-0.255c1.27374,-0.12946 1.85468,-0.16809 2.396,-0.20132c0.50299,-0.03088 0.9693,-0.05136 1.39954,-0.06448c0.39508,-0.01205 0.75629,-0.01755 1.08447,-0.0195c0.56134,-0.00336 0.79675,0.00079 1.00403,-0.004c0.1814,-0.00418 0.3399,-0.01138 0.474,-0.039c0.11676,-0.02405 0.22266,-0.06046 0.29401,-0.129c0.14691,-0.14111 0.17383,-0.2717 0.20398,-0.40668c0.03528,-0.15808 0.05255,-0.34781 0.06451,-0.56851c0.01385,-0.25531 0.01758,-0.54898 0.01947,-0.88348c0.00446,-0.80402 0.00482,-1.27905 -0.00531,-1.80402c-0.01111,-0.5751 -0.03693,-1.20078 -0.09753,-1.875c-0.06531,-0.72601 -0.15979,-1.50403 -0.32251,-2.32498c-0.35876,-1.81018 -0.66479,-2.78607 -1.02795,-3.836c-0.40405,-1.16821 -0.93152,-2.45996 -1.58704,-3.90152c-0.74744,-1.64383 -1.66107,-3.49158 -2.75696,-5.5665c-2.65253,-5.02209 -4.34583,-7.95566 -6.19604,-11.19998c-2.00684,-3.51904 -4.17993,-7.26956 -6.4845,-11.23352c-2.414,-4.15213 -4.93164,-8.45779 -7.51947,-12.8985c-5.33887,-9.16156 -8.05042,-13.83151 -10.75336,-18.54266c-2.70776,-4.71951 -5.38733,-9.44138 -7.99799,-14.16299c-2.58386,-4.67322 -5.10126,-9.29657 -7.45801,-13.89301c-4.5412,-8.85684 -6.52228,-13.17744 -8.38263,-17.368c-1.79156,-4.0356 -3.41766,-7.95367 -4.88855,-11.739c-1.40387,-3.61278 -2.66895,-7.07587 -3.76349,-10.38901c-1.99725,-6.04561 -2.74158,-8.81906 -3.41602,-11.392c-0.62292,-2.37631 -1.13721,-4.57578 -1.5705,-6.59399c-0.39349,-1.83278 -0.70911,-3.49226 -0.98547,-4.974c-0.45551,-2.44203 -0.63556,-3.41159 -0.81335,-4.22267c-0.14771,-0.67372 -0.28278,-1.22185 -0.40948,-1.6575c-0.10004,-0.34402 -0.19049,-0.60742 -0.27448,-0.80249c-0.11346,-0.26353 -0.16711,-0.35022 -0.2027,-0.42401c-0.02863,-0.05927 -0.05096,-0.10741 -0.06451,-0.1485c-0.01154,-0.03505 -0.01758,-0.06891 -0.01947,-0.1035c-0.00452,-0.08389 -0.00378,-0.1393 0.00397,-0.20399c0.00909,-0.07552 0.03174,-0.1626 0.078,-0.255c0.05426,-0.10843 0.13763,-0.22739 0.258,-0.345c0.30701,-0.30003 0.54224,-0.44092 0.80939,-0.59999c0.30548,-0.18187 0.66522,-0.36589 1.07849,-0.55501c0.46246,-0.21164 0.98572,-0.42851 1.57349,-0.64499c1.35687,-0.49977 2.14673,-0.73796 2.99335,-1c0.89868,-0.27815 1.84546,-0.55957 2.82898,-0.85501c1.01379,-0.30453 2.05121,-0.61391 3.099,-0.94499c2.11322,-0.66776 3.15558,-1.02878 4.18268,-1.39734c1.01123,-0.36288 1.99579,-0.73518 2.94751,-1.116c0.92151,-0.36873 1.80328,-0.73631 2.63251,-1.116c1.52271,-0.69722 2.18878,-1.05357 2.7973,-1.39867c0.56427,-0.31996 1.07458,-0.63995 1.5285,-0.96451c0.42181,-0.30157 0.80157,-0.60303 1.12347,-0.91949c0.58795,-0.57799 0.80798,-0.89563 1.008,-1.20134c0.19281,-0.29471 0.35425,-0.59705 0.49353,-0.89999c0.13666,-0.29724 0.25238,-0.5988 0.35852,-0.89999c0.21063,-0.5977 0.30414,-0.89957 0.40265,-1.19734c0.09711,-0.29356 0.19153,-0.58105 0.28052,-0.86099c0.08563,-0.26941 0.16632,-0.52658 0.23547,-0.77101c0.12341,-0.43602 0.16632,-0.62715 0.20001,-0.79999c0.0304,-0.15591 0.05139,-0.29845 0.06451,-0.429c0.01208,-0.12015 0.01752,-0.23264 0.01947,-0.339c0.00372,-0.20264 0.00134,-0.30251 0.00134,-0.40134c0,-0.09683 0,-0.19066 0,-0.2805c0,-0.08482 0,-0.16367 0,-0.23549c0,-0.11867 0,-0.164 0,-0.20134c0,-0.03133 0,-0.05867 0,-0.084c0,-0.02533 0,-0.05267 0,-0.084c0,-0.08267 0,-0.13783 0,-0.20399c0,-0.07817 0,-0.16934 0,-0.27451c0,-0.12016 0,-0.25633 0,-0.4095c0,-0.36133 -0.0014,-0.57137 0.00269,-0.80133c0.00446,-0.25005 0.01471,-0.52031 0.039,-0.81c0.02606,-0.31038 0.06366,-0.64156 0.12897,-0.99001c0.14313,-0.76392 0.26807,-1.17088 0.39868,-1.59734c0.13629,-0.44498 0.29126,-0.90158 0.45148,-1.371c0.16382,-0.47992 0.33514,-0.96597 0.49652,-1.461c0.32428,-0.99466 0.46515,-1.49643 0.59735,-1.99866c0.13214,-0.50214 0.25226,-1.0087 0.3645,-1.5195c0.1131,-0.51453 0.21863,-1.03589 0.31946,-1.5645c0.20612,-1.08044 0.30121,-1.63538 0.40137,-2.19334c0.09985,-0.55603 0.19812,-1.10434 0.29999,-1.638c0.09814,-0.51434 0.19281,-1.00363 0.29999,-1.45799c0.1875,-0.79506 0.29327,-1.12009 0.39868,-1.39734c0.09119,-0.23988 0.18561,-0.44019 0.28052,-0.603c0.08063,-0.13823 0.16052,-0.24796 0.23547,-0.33299c0.11407,-0.1295 0.16455,-0.16998 0.20001,-0.20801c0.02875,-0.03079 0.05139,-0.05754 0.06451,-0.084c0.01215,-0.02444 0.01764,-0.05257 0.01947,-0.084c0.00482,-0.08253 0.00134,-0.13733 0.00134,-0.2c0,-0.06866 0,-0.14134 0,-0.216c0,-0.07466 0,-0.14734 0,-0.216c0,-0.11732 0,-0.16249 0,-0.19867c0,-0.02817 0,-0.04933 0,-0.0645c0,-0.01016 0,-0.01633 0,-0.0195c0,-0.00133 0,-0.0015 0,-0.00266c0,-0.00317 0,-0.00934 0,-0.0195c0,-0.01517 0,-0.03633 0,-0.0645c0,-0.08134 0,-0.13667 0,-0.20401c0,-0.08133 0,-0.17867 0,-0.29399c0,-0.13535 0,-0.29268 0,-0.474c0,-0.44267 -0.00067,-0.70734 0.00134,-1c0.0022,-0.3187 0.0072,-0.66141 0.01947,-1.026c0.01294,-0.38475 0.03107,-0.78773 0.06451,-1.20601c0.07025,-0.8783 0.13293,-1.33176 0.19867,-1.78934c0.06561,-0.45645 0.13959,-0.9043 0.216,-1.338c0.073,-0.41429 0.14642,-0.80217 0.216,-1.15799c0.11578,-0.5923 0.16254,-0.81784 0.19867,-0.99867c0.02814,-0.14084 0.04938,-0.24666 0.06451,-0.32249c0.01013,-0.05084 0.0163,-0.08167 0.01947,-0.0975c0.00134,-0.00667 0.00153,-0.00667 0.00269,-0.00667c0.00317,0 0.00934,0 0.01947,0l0.0152,0l0.02118,0l0.02814,0" id="svg_3" stroke-width="5" stroke="#000000" fill="none"/>
 </g>
</svg>