<svg width="640.0000000000001" height="480" xmlns="http://www.w3.org/2000/svg" xmlns:svg="http://www.w3.org/2000/svg">
 <!-- Created with SVG-edit - http://svg-edit.googlecode.com/ -->
 <defs>
  <filter id="svg_1_blur">
   <feGaussianBlur stdDeviation="0.3"/>
  </filter>
  <filter id="svg_12_blur">
   <feGaussianBlur stdDeviation="1"/>
  </filter>
  <filter id="svg_6_blur">
   <feGaussianBlur stdDeviation="0.5"/>
  </filter>
 </defs>
 <g>
  <title>Layer 1</title>
  <ellipse fill="#ffffff" stroke="#000000" cx="294.88835" cy="193.57164" rx="133.99999" ry="84" transform="matrix(1.71913, 0, 0, 1.6109, -153.44, -105.532)" filter="url(#svg_1_blur)" id="svg_23"/>
  <ellipse fill="#ffffff" stroke="#000000" stroke-width="2" cx="304.35553" cy="201.85714" id="svg_1" rx="133.99999" ry="84" transform="matrix(1.58333, 0, 0, 1.42857, -129.405, -83.3528)" opacity="0.74" filter="url(#svg_1_blur)"/>
  <text fill="#000000" stroke="#000000" stroke-width="0" stroke-dasharray="null" stroke-linejoin="null" stroke-linecap="null" x="312.35406" y="161.38076" font-size="24" font-family="serif" text-anchor="middle" xml:space="preserve" transform="matrix(2.76773, 0, 0, 3.05195, -510.967, -312.652)" id="svg_12" filter="url(#svg_12_blur)">SVG</text>
  <text fill="#000000" stroke="#000000" stroke-width="0" stroke-dasharray="null" stroke-linejoin="null" stroke-linecap="null" opacity="0.25" x="312.72274" y="160.04338" font-size="24" font-family="serif" text-anchor="middle" xml:space="preserve" transform="matrix(2.76773, 0, 0, 3.05195, -510.967, -312.652)" id="svg_5">SVG</text>
  <text fill="#000000" stroke="#007f7f" stroke-dasharray="null" stroke-linejoin="null" stroke-linecap="null" x="316.97217" y="214.66469" id="svg_6" font-size="24" font-family="serif" text-anchor="middle" xml:space="preserve" fill-opacity="0" transform="rotate(30, 375.04, 212.439) matrix(1.68941, 0, 0, 1.52428, -160.089, -102.356)" filter="url(#svg_6_blur)">M</text>
  <text fill="#007f7f" stroke="#007f7f" stroke-dasharray="null" stroke-linejoin="null" stroke-linecap="null" opacity="0.44" x="319.15137" y="216.22449" font-size="24" font-family="serif" text-anchor="middle" xml:space="preserve" transform="rotate(30, 376.038, 213.729) matrix(1.58333, 0, 0, 1.42857, -129.405, -83.3528)" id="svg_17">M</text>
  <text fill="#007f7f" stroke="#007f7f" stroke-dasharray="null" stroke-linejoin="null" stroke-linecap="null" opacity="0.44" x="342.35228" y="230.51022" font-size="24" font-family="serif" text-anchor="middle" xml:space="preserve" transform="rotate(30, 412.701, 234.405) matrix(1.58333, 0, 0, 1.42857, -129.405, -83.3528)" id="svg_19">A</text>
  <text fill="#007f7f" stroke="#007f7f" stroke-dasharray="null" stroke-linejoin="null" stroke-linecap="null" opacity="0.44" x="362.97531" y="244.79595" font-size="24" font-family="serif" text-anchor="middle" xml:space="preserve" transform="rotate(30, 445.426, 254.546) matrix(1.58333, 0, 0, 1.42857, -129.405, -83.3528)" id="svg_20">P</text>
  <text fill="#000000" stroke="#007f7f" stroke-dasharray="null" stroke-linejoin="null" stroke-linecap="null" x="339.32027" y="229.39228" font-size="24" font-family="serif" text-anchor="middle" xml:space="preserve" fill-opacity="0" transform="rotate(30, 412.795, 234.888) matrix(1.68941, 0, 0, 1.52428, -160.089, -102.356)" filter="url(#svg_6_blur)" id="svg_21">A</text>
  <text fill="#000000" stroke="#007f7f" stroke-dasharray="null" stroke-linejoin="null" stroke-linecap="null" x="358.04435" y="240.7727" font-size="24" font-family="serif" text-anchor="middle" xml:space="preserve" fill-opacity="0" transform="rotate(30, 444.428, 252.235) matrix(1.68941, 0, 0, 1.52428, -160.089, -102.356)" filter="url(#svg_6_blur)" id="svg_22">P</text>
 </g>
</svg>