<svg width="640" height="480" xmlns="http://www.w3.org/2000/svg" xmlns:svg="http://www.w3.org/2000/svg">
 <!-- Created with SVG-edit - http://svg-edit.googlecode.com/ -->
 <g>
  <title>Layer 1</title>
  <path id="svg_1" d="m132.00325,140.78276c-2.91161,-5.26338 -6.47907,-9.5293 -10.0608,-12.51393c-4.17139,3.06497 -9.26023,4.92126 -14.79992,4.92126c-5.55485,0 -10.65097,-1.86374 -14.81519,-4.92126c-3.58165,2.98463 -7.14864,7.25055 -10.07534,12.51393c-6.78491,12.23039 -7.52747,24.77402 -1.66694,28.02827c2.62084,1.46307 5.37249,0.37106 8.21911,-2.36606c-0.50253,2.77383 -0.79342,5.78746 -0.79342,8.93271c0,13.9919 5.43769,25.31956 12.13586,25.31956c4.03296,0 6.03489,-4.12059 6.99593,-10.43958c0.95329,6.31898 2.95553,10.43958 6.97426,10.43958c6.71185,0 12.14278,-11.32767 12.14278,-25.31956c0,-3.14525 -0.29121,-6.15887 -0.80096,-8.93271c2.85403,2.73712 5.60571,3.82913 8.23405,2.36606c5.85272,-3.25426 5.09596,-15.79788 -1.68941,-28.02827zm-24.86815,-12.36118c11.26938,0 20.41315,-9.14393 20.41315,-20.41332s-9.14377,-20.42038 -20.41315,-20.42038c-11.2771,0 -20.42033,9.14396 -20.42033,20.42038s9.14323,20.41332 20.42033,20.41332z" stroke-width="5" stroke="#000000" fill="#FF0000"/>
  <path id="svg_2" d="m504.99457,138.82774c-2.85785,-5.1655 -6.37225,-9.35214 -9.85962,-12.28126c-4.1153,3.00797 -9.0874,4.82973 -14.54517,4.82973c-5.45914,0 -10.43112,-1.82904 -14.54617,-4.82973c-3.48697,2.92912 -7.0018,7.11576 -9.85986,12.28126c-6.65808,12.00264 -7.40118,24.31256 -1.65735,27.506c2.57236,1.43619 5.28696,0.36443 8.0882,-2.32182c-0.51532,2.72197 -0.8009,5.67978 -0.8009,8.76634c0,13.73149 5.34409,24.84821 11.91681,24.84821c3.97272,0 5.91614,-4.04384 6.85928,-10.24516c0.94202,6.20132 2.91531,10.24516 6.85855,10.24516c6.57266,0 11.91681,-11.11671 11.91681,-24.84821c0,-3.08656 -0.28574,-6.04437 -0.79993,-8.76634c2.79977,2.68625 5.51498,3.75801 8.08719,2.32182c5.74353,-3.19344 5.00031,-15.50336 -1.65784,-27.506zm-24.40479,-12.13115c11.05905,0 20.03253,-8.9735 20.03253,-20.03293s-8.97348,-20.04014 -20.03253,-20.04014c-11.06024,0 -20.03363,8.97348 -20.03363,20.04014s8.97339,20.03293 20.03363,20.03293z" stroke-width="5" stroke="#000000" fill="#FF0000"/>
  <path id="svg_3" d="m314.49179,138.37338c-2.19647,-3.96974 -4.87561,-7.18713 -7.57678,-9.43829c-3.16272,2.31149 -6.98419,3.7115 -11.17868,3.7115c-4.1951,0 -8.01614,-1.40549 -11.17877,-3.7115c-2.67947,2.25116 -5.38065,5.46855 -7.57675,9.43829c-5.11725,9.22383 -5.68814,18.68398 -1.27411,21.13821c1.97687,1.1035 4.0629,0.28009 6.19351,-1.78432c-0.37329,2.09178 -0.59323,4.36484 -0.59323,6.73672c0,10.55278 4.10709,19.09589 9.15811,19.09589c3.0307,0 4.54672,-3.10759 5.27124,-7.87332c0.72455,4.76573 2.21802,7.87332 5.27054,7.87332c5.05127,0 9.15823,-8.54311 9.15823,-19.09589c0,-2.37189 -0.21951,-4.64494 -0.61508,-6.73672c2.15244,2.06441 4.21713,2.88782 6.21509,1.78432c4.41492,-2.45424 3.84366,-11.91438 -1.27332,-21.13821zm-18.75546,-9.32295c8.49948,0 15.39548,-6.89596 15.39548,-15.39525s-6.896,-15.40082 -15.39548,-15.40082c-8.49905,0 -15.39557,6.89608 -15.39557,15.40082s6.89651,15.39525 15.39557,15.39525zm10.51971,-31.60313c4.43625,1.63615 1.75677,-2.60799 1.75677,-5.51238s2.74567,-6.44588 -1.75677,-5.00193c-4.74347,1.51547 -8.58676,2.35005 -8.58676,5.25438s3.84329,3.51399 8.58676,5.25993zm-10.49762,-2.06439c2.8111,0 1.25134,-1.42746 1.25134,-3.18465c0,-1.75671 1.58179,-3.17331 -1.25134,-3.17331s-1.34,1.42188 -1.34,3.17331c0,1.76264 -1.47119,3.18465 1.34,3.18465zm-10.54184,2.06439c4.7439,-1.74062 8.56491,-2.35543 8.56491,-5.25993s-3.82101,-3.73891 -8.56491,-5.25438c-4.52472,-1.44932 -1.77902,2.10297 -1.77902,5.00193s-2.6795,7.14297 1.77902,5.51238z" stroke-width="5" stroke="#000000" fill="#FF0000"/>
 </g>
</svg>