<svg width="640" height="480" xmlns="http://www.w3.org/2000/svg" xmlns:svg="http://www.w3.org/2000/svg">
 <!-- Created with SVG-edit - http://svg-edit.googlecode.com/ -->

 <g>
  <title>Layer 1</title>
  <path d="m134,116c2.64333,3.30033 3.31828,3.91511 4.08333,4.54166c0.40735,0.33361 1.29205,1.02644 2.25,1.79167c0.51176,0.4088 1.04469,0.84212 1.608,1.29449c0.59399,0.47701 1.2234,0.97882 1.896,1.5015c0.71263,0.5538 1.46857,1.14134 3.16267,2.37067c0.92459,0.67092 1.91132,1.35955 2.952,2.06699c1.08188,0.73543 2.21086,1.48062 3.384,2.22899c1.20146,0.76645 2.42928,1.5455 4.99733,3.03732c1.30281,0.75682 2.6333,1.48633 3.9765,2.2095c1.34882,0.7262 2.70996,1.43831 4.0755,2.1465c1.36548,0.70815 2.73438,1.40474 5.448,2.81067c1.34834,0.69856 2.6973,1.40674 4.06351,2.1225c1.39514,0.73091 2.83128,1.4837 4.32449,2.25751c1.55907,0.80795 3.196,1.65727 6.77867,3.45332c1.95245,0.97879 4.00195,1.98547 6.114,3.02101c2.14661,1.05249 4.30296,2.10338 6.438,3.14699c2.08762,1.02042 4.10422,1.99683 7.78133,3.832c1.62514,0.81108 3.10257,1.56561 4.45201,2.26201c1.23979,0.6398 2.38123,1.2382 3.444,1.79399c0.99855,0.5222 1.94391,1.0267 3.77066,1.944c0.89705,0.45044 1.79652,0.88303 2.69099,1.30951c0.88686,0.42285 1.76767,0.83563 2.63701,1.24649c0.85799,0.40549 1.70663,0.7986 3.33867,1.61067c0.79277,0.39447 1.56194,0.79616 2.3145,1.19098c0.73676,0.38655 1.45535,0.76921 2.1615,1.13701c0.69022,0.35951 1.36101,0.71887 2.69066,1.33868c0.6411,0.29883 1.27823,0.56699 1.905,0.819c0.61331,0.24657 1.21928,0.47458 1.815,0.69298c0.58432,0.21423 1.16122,0.41531 2.28,0.82133c0.5461,0.1982 1.08357,0.39983 1.6185,0.59549c0.53308,0.19499 1.06769,0.38754 1.60951,0.56851c0.5472,0.18274 1.10286,0.37003 2.27199,0.66933c0.60716,0.15544 1.23668,0.28589 1.88101,0.414c0.65701,0.13063 1.32738,0.25243 2.00699,0.37801c0.68771,0.12709 1.38391,0.24623 2.77867,0.54135c0.70151,0.14841 1.4017,0.31578 2.10451,0.48598c0.70654,0.17111 1.41594,0.34895 2.13148,0.522c0.72076,0.1743 1.44604,0.35715 2.93066,0.65866c0.7536,0.15305 1.52042,0.28581 2.2995,0.405c0.79028,0.12091 1.5957,0.22575 2.4165,0.315c0.83557,0.09087 1.68829,0.17616 3.45068,0.28c0.90802,0.0535 1.82791,0.08476 2.74948,0.10951c0.91443,0.02455 1.81299,0.03821 2.68646,0.04648c0.83951,0.00798 1.63605,0.00999 3.06406,0.01068c0.61615,0.00029 1.16931,0 1.66644,0c0.44815,0 0.85431,0 1.22549,0c0.34317,0 0.66531,0.00034 1.27466,0c0.30017,-0.00017 0.60138,0.00026 0.90451,-0.009c0.30624,-0.00937 0.61691,-0.02715 0.93149,-0.063c0.32187,-0.03667 0.65506,-0.07622 1.33066,-0.26131c0.35846,-0.09822 0.72278,-0.23341 1.095,-0.39c0.38794,-0.16319 0.78296,-0.35443 1.18503,-0.57002c0.41812,-0.22423 0.84897,-0.4662 1.71997,-1.03998c0.46017,-0.30313 0.92593,-0.63832 1.40402,-0.99902c0.50076,-0.37778 1.0159,-0.78876 1.54797,-1.23299c0.56079,-0.46823 1.1474,-0.9691 2.38135,-2.10133c0.66809,-0.61302 1.34842,-1.26352 2.04001,-1.9305c0.6951,-0.67036 1.37756,-1.3394 2.03998,-1.9935c0.63431,-0.62628 1.22714,-1.2169 2.25342,-2.24266c0.41617,-0.416 0.76898,-0.76826 1.06198,-1.06651c0.24289,-0.2473 0.44089,-0.45177 0.59393,-0.62549c0.12436,-0.14113 0.22916,-0.25787 0.34402,-0.47467c0.05136,-0.09686 0.08408,-0.19821 0.11398,-0.2955c0.02872,-0.09341 0.05084,-0.18425 0.078,-0.26849c0.0256,-0.07941 0.04337,-0.16298 0.14133,-0.26932c0.04807,-0.05217 0.11594,-0.08502 0.186,-0.10951c0.07144,-0.02498 0.14709,-0.03821 0.22202,-0.04648c0.07248,-0.00801 0.14133,-0.00999 0.25867,-0.01068c0.04517,-0.00026 0.08133,0 0.1095,0c0.02115,0 0.03632,0 0.04648,0c0.00626,0 0.01001,0 0.01068,-0.59735c0.00107,-0.95349 0,-1.91182 0,-2.476c0,-0.61417 0,-1.27333 0,-1.97249c0,-2.28749 0,-3.09735 0,-3.92616c0,-0.84682 0,-1.71065 0,-2.5905c0,-0.89485 0,-1.80368 0,-2.72548c0,-1.87869 0.00165,-2.83351 -0.00266,-3.79733c-0.00433,-0.97185 -0.01376,-1.95079 -0.039,-2.9355c-0.02539,-0.98997 -0.06033,-1.98445 -0.129,-2.9805c-0.13794,-2.00053 -0.26294,-2.99911 -0.40134,-3.992c-0.13736,-0.98553 -0.30093,-1.95523 -0.49051,-2.9025c-0.18533,-0.92613 -0.38687,-1.82285 -0.62549,-2.67751c-0.44739,-1.6024 -0.72101,-2.32458 -1.00134,-3.00134c-0.26895,-0.64928 -0.56668,-1.26262 -0.89401,-1.842c-0.32361,-0.57278 -0.67981,-1.12724 -1.07397,-1.66199c-0.81653,-1.10777 -1.30133,-1.64706 -1.79602,-2.20133c-0.50357,-0.5642 -1.02829,-1.11833 -1.5675,-1.6575c-0.53421,-0.53416 -1.07001,-1.04765 -1.61249,-1.5225c-1.01804,-0.89111 -1.51773,-1.26264 -1.99866,-1.59734c-0.45691,-0.31798 -0.91202,-0.59782 -1.36801,-0.8385c-0.44565,-0.23521 -0.90039,-0.44193 -1.36801,-0.61349c-0.95593,-0.35072 -1.47061,-0.48689 -2.54181,-0.729c-0.5495,-0.12421 -1.67413,-0.3245 -2.24194,-0.4c-1.67807,-0.22312 -2.22592,-0.25053 -3.28656,-0.3045c-0.51474,-0.0262 -1.51492,-0.0488 -2,-0.05267c-1.39499,-0.01112 -2.27774,-0.01128 -3.13629,0.00616c-0.85086,0.0173 -1.71112,0.05711 -2.59198,0.156c-0.91824,0.10308 -1.85089,0.27872 -2.3125,0.39584c-0.91736,0.23273 -2.20865,0.73624 -2.95819,1.2175c-0.38702,0.24848 -1.15143,0.90179 -1.55731,1.29333c-0.44537,0.42965 -0.91956,0.92212 -2.00534,2.09332c-0.63135,0.68105 -1.31024,1.42733 -2.02951,2.229c-0.75684,0.84356 -1.53665,1.72615 -2.32648,2.643c-0.80325,0.93245 -1.61511,1.87003 -3.14401,3.79465c-0.74474,0.93747 -1.44743,1.87518 -2.12399,2.80052c-0.662,0.90543 -1.29501,1.80203 -1.908,2.6835c-0.59962,0.86223 -1.17638,1.71222 -2.30133,3.34932c-0.5444,0.79225 -1.08597,1.57065 -1.6185,2.35049c-0.53549,0.78415 -1.07384,1.58385 -1.60951,2.4135c-0.55351,0.85727 -1.12834,1.75214 -2.27199,3.73601c-0.62096,1.07716 -1.24101,2.22676 -1.8855,3.4245c-0.66624,1.2382 -1.3416,2.51411 -2.03851,3.81149c-0.70673,1.31563 -1.40883,2.64841 -2.90933,5.26401c-0.7439,1.29674 -1.51341,2.56639 -2.286,3.8235c-0.76877,1.25089 -1.54761,2.48883 -2.32201,3.72449c-0.77293,1.23334 -1.55679,2.45862 -3.05865,4.95201c-0.75262,1.24951 -1.48251,2.51112 -2.2005,3.77249c-0.71266,1.252 -1.40559,2.49727 -2.08351,3.72751c-0.66573,1.20813 -1.30951,2.39395 -2.54933,4.66666c-0.58978,1.08113 -1.16278,2.1266 -1.71899,3.1425c-0.54245,0.99077 -1.07367,1.96112 -1.59299,2.91751c-0.51332,0.9453 -1.02444,1.88361 -2.02133,3.77335c-0.50377,0.95496 -1.00821,1.9312 -1.52252,2.9355c-0.53241,1.03969 -1.08252,2.12657 -1.65749,3.26849c-0.60674,1.20505 -1.24687,2.48389 -2.65334,5.29601c-0.77377,1.5471 -1.58879,3.1776 -2.43901,4.87349c-0.87508,1.74547 -1.76813,3.52295 -2.67299,5.3145c-0.90446,1.7908 -1.79927,3.56445 -3.55467,6.97867c-0.83145,1.61717 -1.63976,3.16275 -2.397,4.653c-0.72522,1.4272 -1.40854,2.7989 -2.019,4.13101c-0.58366,1.27365 -1.16307,2.49048 -1.91733,4.88266c-0.35435,1.12384 -0.5914,2.23753 -0.76651,3.3195c-0.1696,1.04791 -0.26776,2.07544 -0.3255,3.07649c-0.05626,0.97548 -0.06999,1.92932 -0.07466,3.77068c-0.00226,0.89049 0,1.76399 0,2.62349c0,0.84851 0,1.68901 0,2.52452c0,0.8335 0,1.668 0,3.35202c0,0.85397 0,1.71198 0,2.56799c0,0.84799 0,1.68198 0,2.49597c0,0.78799 0,1.54401 0,2.93597c0,0.62537 0,1.2027 0,1.73401c0,0.48737 0,0.93271 0,1.33801c0,0.36731 0,0.69867 0,1.26132c0,0.23532 0,0.44266 0,0.62399c0,0.15735 0,0.29266 0,0.40802c0,0.09732 0,0.17865 0,0.30133c0,0.04532 0,0.08264 0,0.11398c0,0.02734 0,0.05267 0,0.078c0,0.02734 0.00038,0.05869 0,0.14133c-0.00026,0.05469 -0.00018,0.11798 -0.0135,0.186c-0.01439,0.07358 -0.04279,0.15149 -0.0945,0.22202c-0.05705,0.07782 -0.1384,0.16385 -0.392,0.25867c-0.1601,0.05988 -0.35814,0.08594 -0.58051,0.1095c-0.24835,0.02631 -0.52362,0.03851 -0.8235,0.04648c-0.32376,0.00861 -0.67065,0.01001 -1.42932,0.01068c-0.41101,0.00037 -0.84801,0 -1.317,0c-0.507,0 -1.058,0 -1.659,0c-0.65701,0 -1.37601,0.00034 -3.024,0c-0.93767,-0.00018 -1.94136,0.00012 -2.99701,-0.009c-1.09369,-0.00946 -2.21152,-0.02658 -3.33899,-0.06299c-1.12389,-0.03629 -2.23253,-0.06165 -4.33067,-0.26135c-0.97212,-0.09253 -1.88475,-0.2254 -2.739,-0.38095c-0.80446,-0.14648 -1.55534,-0.31723 -2.25301,-0.50705c-0.65498,-0.17816 -1.2675,-0.35806 -2.34132,-0.77866c-0.48453,-0.18976 -0.92703,-0.39282 -1.32901,-0.60449c-0.37659,-0.19827 -0.71907,-0.40741 -1.02299,-0.6315c-0.28867,-0.21283 -0.56389,-0.42731 -0.98134,-0.93063c-0.20313,-0.24493 -0.3701,-0.51593 -0.519,-0.79501c-0.14995,-0.28107 -0.27774,-0.57803 -0.39299,-0.88501c-0.11754,-0.31308 -0.22395,-0.63843 -0.42134,-1.31998c-0.10258,-0.35425 -0.20123,-0.71936 -0.2955,-1.095c-0.09645,-0.38437 -0.18747,-0.77927 -0.26849,-1.185c-0.08272,-0.41428 -0.16608,-0.83804 -0.26932,-1.72c-0.05313,-0.45364 -0.08485,-0.9158 -0.10951,-1.3815c-0.02469,-0.46634 -0.03827,-0.93097 -0.04648,-1.3905c-0.00807,-0.45149 -0.00999,-0.89201 -0.01068,-1.72801c-0.00032,-0.39133 0,-0.77066 0,-1.146c0,-0.37933 0,-0.77066 0,-1.18199c0,-0.43936 0,-0.91467 0,-2.00534c0,-0.62784 0,-1.30267 0,-2.01152c0,-0.72983 0,-1.46767 0,-2.2005c0,-0.71483 -0.0002,-1.39867 0,-2.62131c0.00009,-0.51617 -0.00061,-0.96936 0.0045,-1.3665c0.00447,-0.34822 0.01213,-0.65463 0.03148,-0.92552c0.01741,-0.24347 0.02666,-0.47049 0.13069,-0.87465c0.10425,-0.40512 0.41048,-1.07835 1.14667,-1.51466c1.03923,-0.61592 1.5925,-0.62184 2.692,-0.83867c0.59648,-0.11763 1.22029,-0.22052 2.51732,-0.36c1.30861,-0.14073 1.95828,-0.16965 2.61334,-0.20134c0.67862,-0.03282 1.39862,-0.05228 2.1765,-0.0645c0.85277,-0.0134 1.79767,-0.01764 2.8515,-0.0195c2.50267,-0.00444 3.9805,-0.00204 5.60532,0c1.75883,0.00221 3.6387,0.00719 5.62651,0.0195c2.08287,0.01291 4.24774,0.03076 6.48152,0.0645c4.62285,0.06982 6.98502,0.13045 9.36,0.20267c2.37137,0.07211 4.72176,0.1604 7.03348,0.27452c2.2576,0.11142 4.44403,0.23488 6.53851,0.4095c3.86084,0.32184 5.59372,0.55403 7.20801,0.80133c1.52542,0.23369 2.97725,0.50777 4.37848,0.81c1.3815,0.29797 2.75688,0.63527 4.1535,0.99002c2.95322,0.75005 4.54265,1.17177 6.21201,1.59334c1.72998,0.43687 3.50822,0.87794 5.32199,1.3125c1.83157,0.43883 3.66882,0.86984 5.502,1.2675c3.57655,0.77583 5.30397,1.09703 6.97466,1.39465c1.60776,0.28641 3.15231,0.53632 4.6275,0.75449c1.39819,0.2068 2.71729,0.38493 3.95251,0.52951c2.19159,0.25656 3.14386,0.33743 4.00131,0.40265c0.76862,0.05847 1.45599,0.08932 2.06702,0.10951l0.54099,0.00516l0.47699,-0.00882l0.41904,-0.02185" id="svg_1" stroke-width="5" stroke="#000000" fill="none"/>
  <line fill="none" stroke="#000000" stroke-width="5" x1="447" y1="95" x2="416" y2="339" id="svg_2"/>
  <text xml:space="preserve" text-anchor="middle" font-family="serif" font-size="24" id="svg_3" y="47" x="314" stroke-width="0" stroke="#000000" fill="#000000">все работает</text>
 </g>
</svg>