<?xml version="1.0"?>
<svg width="639.9999999999999" height="480" xmlns="http://www.w3.org/2000/svg" xmlns:svg="http://www.w3.org/2000/svg">
 <!-- Created with SVG-edit - http://svg-edit.googlecode.com/ -->
 <g>
  <title>Layer 1</title>
  <path id="svg_2" transform="rotate(37.2724, 165.119, 190.451)" d="m117.847229,244.37291c4.038803,-12.766663 9.566643,-23.57695 14.811432,-28.963608c5.619034,-5.770905 3.124878,-8.274704 -2.670761,-2.680573c-2.43718,2.353287 -3.134918,0.643311 -3.134918,-7.69104c0,-19.882782 10.681229,-32.187378 36.376175,-41.904877c21.74086,-8.225464 37.771774,-17.4729 44.417664,-25.627121l5.416229,-6.64537l0,11.561279c0,14.297073 -4.59761,35.894241 -9.684082,45.50676c-5.395859,10.195068 -23.893341,29.01442 -32.968262,33.545593c-8.133133,4.057785 -25.499542,5.254395 -34.781754,2.39325c-4.625549,-1.426346 -6.093521,-0.337372 -8.490799,6.299133c-1.593201,4.41362 -2.896057,10.690704 -2.896057,13.95015c0,3.700867 -1.539116,5.926834 -4.096123,5.926834c-3.036499,0 -3.630096,-1.465393 -2.298744,-5.67041z" stroke-width="5" stroke="#000000" fill="#FF0000"/>
  <path transform="rotate(31.0165, 400.621, 211.359)" id="svg_1" d="m351.619629,269.267578c4.186401,-13.710999 9.91626,-25.320938 15.352722,-31.106018c5.824371,-6.197769 3.239075,-8.88678 -2.768372,-2.87886c-2.526245,2.527344 -3.249481,0.690903 -3.249481,-8.259933c0,-21.3535 11.071564,-34.568253 37.705536,-45.004547c22.53537,-8.833893 39.15213,-18.76535 46.040894,-27.522736l5.614166,-7.136932l0,12.416458c0,15.354614 -4.765625,38.549316 -10.037994,48.872864c-5.593048,10.949188 -24.76651,31.160614 -34.173065,36.026932c-8.430359,4.357941 -26.431427,5.643082 -36.052856,2.570282c-4.794586,-1.53186 -6.316193,-0.362335 -8.801086,6.765076c-1.651428,4.740082 -3.001892,11.481476 -3.001892,14.982025c0,3.974609 -1.595367,6.365234 -4.245819,6.365234c-3.147461,0 -3.762756,-1.573792 -2.382751,-6.089844z" stroke-width="5" stroke="#000000" fill="#FF0000"/>
 </g>
</svg>